<?xml version="1.0" encoding="utf-8" ?>
<svg xmlns="http://www.w3.org/2000/svg" xmlns:xlink="http://www.w3.org/1999/xlink" width="500" height="500">
	<path fill="#E2E8F0" d="M232.843 111.884C250.135 111.611 264.996 114.098 281.004 120.741C287.695 123.518 294.415 126.962 300.287 131.224C328.323 151.573 347.31 177.218 352.82 212.071C353.707 217.682 353.934 223.23 353.978 228.902C354.162 252.401 348.029 273.067 335.663 293.046C332.745 297.761 329.143 301.981 325.886 306.459C331.848 313.165 338.098 319.603 344.258 326.125C347.396 324.281 350.492 323.127 354.167 323.045C360.427 322.906 363.805 324.642 368.235 328.917C377.666 338.017 386.395 347.722 395.538 357.09L409.874 371.745C416.837 378.808 424.531 386.26 429.864 394.657C431.976 397.984 433.221 401.268 433.261 405.233C433.369 412.452 430.541 419.406 425.425 424.5C420.939 429.111 414.768 431.694 408.335 431.655C403.809 431.619 398.617 430.514 394.701 428.173C389.222 424.897 384.901 419.31 380.362 414.885C370.346 405.121 360.177 395.492 350.317 385.57C346.093 381.657 342.064 377.469 338.018 373.372C335.527 370.85 332.778 368.389 330.613 365.577C329.218 363.787 328.102 361.795 327.305 359.67C324.568 352.177 326.362 345.664 329.57 338.735C324.738 331.721 317.731 326.38 312.596 319.594C308.323 322.989 304.399 326.821 299.9 329.947C280.715 343.277 257.376 352.204 233.91 352.943C208.318 353.749 183.916 347.219 162.406 333.318C156.668 329.609 150.963 325.388 145.984 320.705C123.017 298.796 109.714 268.646 109.013 236.912C108.85 230.614 109.361 224.369 110.19 218.133C113.686 191.82 124.733 170.777 142.915 151.552C158.246 135.342 179.273 121.911 200.929 116.104C211.388 113.3 222.058 112.187 232.843 111.884ZM235.689 328.594C261.044 327.1 287.414 312.97 304.111 294.089C320.831 275.182 330.399 250.022 328.785 224.671C327.166 199.234 314.012 175.129 295.024 158.444C277.732 143.249 251.235 133.165 228.051 135.331C228 135.336 227.951 135.347 227.901 135.354C201.477 137.214 176.848 149.404 159.344 169.286C146.206 184.314 137.82 202.902 135.248 222.697C134.43 228.746 134.041 234.443 134.513 240.551C136.491 266.141 146.973 288.875 166.644 305.706C185.435 322.051 209.926 330.307 234.778 328.674C235.082 328.651 235.386 328.625 235.689 328.594Z"/>
	<path fill="#E2E8F0" d="M231.413 112.86C239.702 112.483 248.35 112.943 256.509 114.512C288.439 120.653 315.799 139.672 333.947 166.551C350.279 190.741 356.841 222.186 351.254 250.89C348.848 263.247 344.185 275.039 338.366 286.153C336.9 288.952 335.159 291.618 333.389 294.233C331.945 296.367 325.05 304.997 324.734 306.619C326.044 308.637 328.001 310.374 329.622 312.161C334.272 317.289 338.82 322.397 343.967 327.044C347.128 325.498 350.212 324.095 353.79 324.004C359.221 323.866 363.695 326.007 367.543 329.75C378.574 340.48 388.989 351.881 399.671 362.957C409.027 372.659 422.896 385.142 429.65 396.511C431.395 399.449 432.078 402.335 432.093 405.728C432.123 412.448 429.743 418.176 424.989 422.956C420.273 427.697 415.187 430.34 408.451 430.33C404.22 430.325 399.792 429.461 396.103 427.317C390.711 424.184 386.27 418.756 381.787 414.467C371.336 404.556 361.021 394.504 350.844 384.313C344.996 378.553 331.863 366.874 328.633 359.871C326.415 355.063 326.415 349.433 328.35 344.535C329.215 342.345 330.359 340.3 331.162 338.076C327.52 334.527 324.211 330.603 320.733 326.89C318.096 324.076 314.605 321.144 312.531 317.919C309.981 320.612 306.797 323.004 303.89 325.302C284.784 340.407 260.13 350.321 235.76 351.83C202.952 353.862 171.419 341.654 146.992 320.066C128.911 304.086 116.758 279.894 112.138 256.402C111.025 250.743 110.489 244.847 110.145 239.093C109.89 234.82 110.132 230.615 110.408 226.355C111.911 201.039 121.841 176.954 138.617 157.935C156.845 137.439 179.764 121.656 206.878 115.813C214.933 114.077 223.201 113.343 231.413 112.86ZM235.689 328.594C261.044 327.1 287.414 312.97 304.111 294.089C320.831 275.182 330.399 250.022 328.785 224.671C327.166 199.234 314.012 175.129 295.024 158.444C277.732 143.249 251.235 133.165 228.051 135.331C228 135.336 227.951 135.347 227.901 135.354C201.477 137.214 176.848 149.404 159.344 169.286C146.206 184.314 137.82 202.902 135.248 222.697C134.43 228.746 134.041 234.443 134.513 240.551C136.491 266.141 146.973 288.875 166.644 305.706C185.435 322.051 209.926 330.307 234.778 328.674C235.082 328.651 235.386 328.625 235.689 328.594Z"/>
	<path fill="#E2E8F0" d="M227.901 135.354C227.951 135.347 228 135.336 228.051 135.331C251.235 133.165 277.732 143.249 295.024 158.444C314.012 175.129 327.166 199.234 328.785 224.671C330.399 250.022 320.831 275.182 304.111 294.089C287.414 312.97 261.044 327.1 235.689 328.594C235.386 328.625 235.082 328.651 234.778 328.674C209.926 330.307 185.435 322.051 166.644 305.706C146.973 288.875 136.491 266.141 134.513 240.551C134.041 234.443 134.43 228.746 135.248 222.697C137.82 202.902 146.206 184.314 159.344 169.286C176.848 149.404 201.477 137.214 227.901 135.354ZM233.875 327.765C239.982 327.64 246.467 326.238 252.333 324.588C270.56 319.46 287.218 310.111 300.359 296.329C313.778 282.255 322.527 265.872 326.241 246.736C327.435 240.58 328.164 234.506 327.999 228.22C327.356 203.893 315.141 178.89 297.569 162.275C280.168 145.82 255.602 135.451 231.496 136.213C230.807 136.234 230.047 136.236 229.37 136.352C222.775 136.857 216.16 137.736 209.754 139.424C189.984 144.787 172.277 155.959 158.925 171.494C143.361 189.766 133.53 217.294 135.581 241.374C137.664 265.828 148.12 288.85 167.136 304.825C186.035 320.702 209.203 328.887 233.875 327.765Z"/>
	<path fill="#E2E8F0" d="M207.066 158.014C208.638 157.876 210.549 158.499 211.864 159.329C214.178 160.79 216.14 163.423 216.627 166.145C217.009 168.285 216.389 170.393 214.935 172.004C212.274 174.95 207.975 176.121 204.679 178.2C199.097 181.722 194.309 185.732 189.732 190.487C180.613 199.962 175.052 210.667 171.611 223.318C170.744 226.503 170.723 231.275 168.664 233.937C167.218 235.805 164.559 236.389 162.338 236.668C160.762 236.719 158.085 236.031 156.712 235.287C154.96 234.338 153.805 232.88 153.27 230.96C151.621 225.039 155.892 212.595 158.319 206.987C159.985 203.138 162.098 199.381 164.139 195.718C171.971 181.663 191.303 162.454 207.066 158.014Z"/>
	<path fill="#E2E8F0" d="M206.348 159.021C208.133 158.938 209.636 159.147 211.195 160.078C213.832 161.652 215.169 164.317 215.831 167.205C215.466 168.844 214.974 170.409 213.759 171.63C211.432 173.969 207.885 174.91 205.099 176.569C200.647 179.22 196.224 182.461 192.475 186.032C181.542 196.446 174.593 208.006 170.644 222.607C169.776 225.817 169.701 230.349 167.844 233.104C166.756 234.718 165.003 235.107 163.218 235.46C161.451 235.586 159.646 235.378 157.993 234.71C156.373 234.057 155.031 232.838 154.361 231.211C152.431 226.521 156.993 213.204 158.89 208.459C167.207 187.658 185.676 167.921 206.348 159.021Z"/>
	<path fill="#E2E8F0" d="M70.8299 138.54C73.4157 138.296 75.807 138.798 78.0062 140.231C80.6808 141.973 81.9899 144.868 81.7217 148.019C81.2264 153.842 77.2709 159.503 74.7698 164.682C73.4221 167.472 72.2492 170.38 71.0979 173.256C67.9111 181.249 65.274 189.451 63.205 197.803C53.5709 235.702 54.3588 270.827 62.4511 308.834C63.7204 314.796 65.6668 320.601 67.0486 326.537C68.5618 324.706 69.759 322.555 71.2056 320.652C76.9212 313.135 82.6608 305.417 88.9104 298.346C90.9169 296.076 92.8062 294.145 96.0388 294.022C98.3263 293.935 100.503 294.567 102.21 296.107C104.036 297.756 105.399 299.829 105.458 302.355C105.489 303.669 105.275 304.762 104.634 305.914C102.675 309.438 99.7841 312.605 97.3238 315.805C92.3937 322.303 87.3766 328.735 82.2739 335.099C79.8505 338.147 77.6989 341.782 74.9585 344.519C76.7999 348.053 78.4211 351.68 80.3267 355.195C82.9602 360.054 86.0241 364.761 89.13 369.331C100.188 385.602 115.437 400.49 130.915 412.553C133.848 414.838 136.751 417.199 139.869 419.23C146.208 417.574 152.284 414.638 158.229 411.934C168.712 407.085 179.103 402.04 189.397 396.799C192.287 395.343 195.055 393.559 198.001 392.245C199.766 391.458 202.66 390.098 204.575 390.157C206.84 390.226 208.991 391.333 210.502 392.998C211.983 394.622 212.731 396.785 212.569 398.978C212.433 400.805 211.712 402.698 210.432 404.034C208.635 405.909 205.756 407.203 203.524 408.503C192.86 414.76 181.847 420.403 170.54 425.406C167.875 426.561 160.548 429.105 158.78 430.632L158.901 431.015C163.028 432.68 166.007 434.474 169.916 436.378C174.342 438.534 179.067 440.493 183.664 442.258C186.453 443.328 189.436 444.119 192.28 445.064C231.97 458.247 270.012 457.93 309.772 445.034C316.116 442.977 322.324 440.994 328.44 438.308C334.311 435.992 340.249 433.293 345.835 430.367C350.562 427.891 355.05 424.404 360.239 422.969C361.721 422.56 363.417 423.146 364.686 423.939C366.792 425.255 368.208 427.505 368.754 429.895C369.202 431.86 369.188 434.296 368.05 436.041C366.084 439.054 361.855 441.42 358.85 443.362C353.619 446.741 348.047 449.519 342.445 452.222C323.782 461.313 303.944 467.764 283.502 471.389C252.282 477.119 219.685 473.217 189.522 464.101C185.343 462.838 181.08 461.626 176.986 460.108C171.634 458.124 166.432 455.756 161.235 453.404C152.767 449.573 144.186 445.438 136.511 440.166C136.42 440.211 136.328 440.255 136.238 440.302C133.308 441.813 130.136 442.789 127.075 444.004C119.529 447.001 111.98 449.94 104.236 452.397C82.9021 459.164 49.461 467.468 28.5504 456.49C21.1965 452.63 15.8508 445.587 13.4188 437.667C9.33434 424.364 14.279 405.694 19.8151 393.318C24.4748 382.9 31.4562 371.637 38.0442 362.32C40.2285 359.231 42.4721 356.151 44.8255 353.189C47.0437 350.397 49.7829 347.553 51.4246 344.372C51.4694 344.285 51.5113 344.197 51.5546 344.109C48.0697 333.595 44.6983 323.038 42.1595 312.247C39.9534 302.87 38.5545 293.006 37.4845 283.443C36.2963 273.39 35.6546 263.279 35.5622 253.157C35.5594 246.496 36.0251 239.746 36.5827 233.108C38.7958 206.76 44.9213 181.264 56.5863 157.45C58.9263 152.673 61.2849 147.713 64.1149 143.208C65.8751 140.405 67.6963 139.267 70.8299 138.54ZM83.4923 438.875C91.8991 437.118 100.032 434.233 108.087 431.307C111.442 430.089 114.943 429 118.136 427.397C111.937 422.15 105.543 417.31 99.6305 411.705C85.9408 398.73 70.0282 377.932 60.9961 361.44C60.7607 361.01 60.8984 361.178 60.5749 360.889L60.3681 361.247C56.9669 367.069 52.474 372.258 48.8309 377.931C41.1462 389.898 27.5469 416.025 31.2184 430.378C32.2126 434.265 34.0404 437.537 37.6007 439.617C40.7623 441.463 44.4955 442.619 48.1214 443.056C57.5555 444.195 74.1427 441.428 83.1951 438.958L83.4923 438.875Z"/>
	<path fill="#E2E8F0" d="M70.658 139.529C72.3312 139.376 73.7316 139.467 75.2969 140.14C77.422 141.055 79.4925 142.461 80.3039 144.719C82.2301 150.079 74.9064 161.705 72.5171 167.073C59.1929 197.013 53.6971 232.307 55.3432 264.933C56.0344 278.632 58.06 292.104 60.84 305.515C62.2696 312.412 64.3789 318.972 66.0577 325.782C66.3143 326.824 65.9592 327.952 66.3156 328.878C68.2092 327.8 70.898 322.747 72.3064 320.827C75.3534 316.672 78.6815 312.691 81.8357 308.613C84.6185 305.016 87.3036 301.01 90.5262 297.799C91.6023 296.727 92.71 295.71 94.2098 295.295C96.2776 294.722 98.5419 294.895 100.41 295.996C102.247 297.078 103.937 298.876 104.366 301.013C104.714 302.744 104.165 304.431 103.357 305.951C101.925 308.642 99.586 310.806 97.7859 313.249C93.9958 318.392 90.1997 323.52 86.2123 328.515C82.151 333.603 77.7574 338.624 74.0908 344.004L73.9152 344.265C75.4212 349.074 78.2418 353.588 80.7386 357.947C95.156 383.115 116.396 404.265 140.249 420.564C156.171 415.255 172.525 406.212 187.621 398.811C192.413 396.461 197.453 392.989 202.578 391.521C204.272 391.036 206.239 391.331 207.767 392.189C209.558 393.194 210.781 394.873 211.311 396.844C211.778 398.58 211.54 400.336 210.617 401.88C209.964 402.974 209.027 403.859 208.006 404.607C206.344 405.825 204.353 406.719 202.57 407.761C191.316 414.348 179.678 420.256 167.717 425.451C163.559 427.295 159.445 429.385 155.038 430.543C161.474 432.166 167.319 436.413 173.447 439.053C213.924 456.491 253.37 460.726 296.283 449.934C305.495 447.617 314.36 444.926 323.188 441.406C329.788 439.191 340.347 434.654 346.51 431.36C350.458 429.25 353.967 426.326 358.166 424.678C359.8 424.036 361.516 423.558 363.178 424.346C365.109 425.263 366.771 427.179 367.491 429.182C368.193 431.139 367.881 433.332 366.94 435.159C362.684 443.42 327.048 458.12 317.209 461.443C280.844 473.723 248.85 476.157 211.174 468.46C196.604 465.53 182.361 461.162 168.653 455.419C160.788 452.074 152.933 448.418 145.429 444.322C142.347 442.639 139.54 440.535 136.377 438.973C134.162 439.663 132.012 440.83 129.856 441.704C125.901 443.307 121.877 444.785 117.904 446.349C110.019 449.453 101.844 452.028 93.684 454.31C74.8148 459.589 46.033 465.149 28.1096 454.923C21.1021 450.926 16.3201 443.851 14.2532 436.12C13.2209 432.259 13.1713 428.093 13.3118 424.124C14.1443 400.616 27.8218 378.642 40.9812 359.954C43.0343 357.064 45.1803 354.24 47.4157 351.488C49.2245 349.261 51.396 346.965 52.7981 344.463C52.8411 344.387 52.8815 344.309 52.9232 344.232C50.5142 337.305 48.4272 330.288 46.2842 323.273C41.3591 307.15 38.7223 289.947 37.5166 273.159C37.0597 266.796 36.5785 260.353 36.5325 253.974C36.107 217.432 44.9266 181.375 62.1714 149.154C64.2938 145.163 65.98 140.958 70.658 139.529ZM83.4923 438.875C91.8991 437.118 100.032 434.233 108.087 431.307C111.442 430.089 114.943 429 118.136 427.397C111.937 422.15 105.543 417.31 99.6305 411.705C85.9408 398.73 70.0282 377.932 60.9961 361.44C60.7607 361.01 60.8984 361.178 60.5749 360.889L60.3681 361.247C56.9669 367.069 52.474 372.258 48.8309 377.931C41.1462 389.898 27.5469 416.025 31.2184 430.378C32.2126 434.265 34.0404 437.537 37.6007 439.617C40.7623 441.463 44.4955 442.619 48.1214 443.056C57.5555 444.195 74.1427 441.428 83.1951 438.958L83.4923 438.875Z"/>
	<path fill="#E2E8F0" d="M60.5356 358.345C61.5767 359.019 64.351 364.912 65.2568 366.388C68.7171 372.14 72.4411 377.728 76.4168 383.137C83.4243 392.573 91.3029 402.229 99.8216 410.368C106.219 416.481 113.248 422.085 120.228 427.513L120.166 427.851C108.673 432.61 96.6551 436.901 84.5586 439.814C81.6755 440.086 78.5716 441.035 75.7116 441.609C65.5136 443.657 52.2492 446.234 42.24 442.786C37.666 441.21 33.4558 438.838 31.2944 434.303C24.1606 419.335 39.8256 389.544 48.1625 376.986C51.2509 372.334 58.8206 363.24 60.4476 358.605C60.4779 358.519 60.5063 358.432 60.5356 358.345ZM83.4923 438.875C91.8991 437.118 100.032 434.233 108.087 431.307C111.442 430.089 114.943 429 118.136 427.397C111.937 422.15 105.543 417.31 99.6305 411.705C85.9408 398.73 70.0282 377.932 60.9961 361.44C60.7607 361.01 60.8984 361.178 60.5749 360.889L60.3681 361.247C56.9669 367.069 52.474 372.258 48.8309 377.931C41.1462 389.898 27.5469 416.025 31.2184 430.378C32.2126 434.265 34.0404 437.537 37.6007 439.617C40.7623 441.463 44.4955 442.619 48.1214 443.056C57.5555 444.195 74.1427 441.428 83.1951 438.958L83.4923 438.875Z"/>
	<path fill="#E2E8F0" d="M382.754 103.75C381.837 102.985 380.88 102.267 379.934 101.539C350.044 78.3227 314.587 63.353 277.102 58.1245C271.916 57.4377 266.761 56.7928 261.53 56.5759C247.685 56.0018 233.567 57.3485 219.96 59.8926C214.338 60.9437 208.648 62.056 203.148 63.6397C194.34 66.1756 185.621 69.4173 177.185 72.9876C173.814 74.4356 170.472 75.9494 167.161 77.5281C163.528 79.2735 160.203 81.6 156.1 82.0966C153.222 82.4448 149.945 81.9207 147.665 80.0348C145.487 78.2328 144.196 75.2497 144.046 72.4575C143.915 70.019 144.466 68.3313 146.111 66.5141C149.943 62.2817 156.91 59.2703 162.033 56.856C180.288 48.0975 199.627 41.8065 219.541 38.1485C226.396 36.8306 233.035 35.6775 240.026 35.3462C250.365 34.8561 260.975 34.6198 271.3 35.4368C318.291 39.1551 363.725 59.3002 399.83 89.2961C402.939 91.8789 405.871 94.7215 408.86 97.4439C413.596 95.7168 418.633 94.7433 423.58 93.8215C438.377 91.0646 453.164 89.8698 467.707 94.6268C477 97.5176 485.344 104.42 489.901 112.986C494.849 122.286 495.129 135.719 492.027 145.631C487.746 159.31 477.654 175.044 468.08 185.654C466.405 187.51 464.741 189.534 462.752 191.063C463.538 194.885 464.895 198.551 465.762 202.357C468.191 212.849 469.892 223.497 470.852 234.224C473.632 264.952 468.398 297.525 457.759 326.4C455.977 331.237 453.793 335.981 451.696 340.692C448.872 347.04 445.983 353.959 442.158 359.771C441.195 361.234 440.097 362.389 438.761 363.525C436.952 363.571 435.059 363.729 433.267 363.493C430.096 362.366 428.097 361.474 425.839 358.867C425.699 358.649 425.556 358.433 425.426 358.209C424.347 356.348 423.638 354.166 423.914 351.995C424.427 347.971 429.12 341.486 431.142 337.674C432.543 335.035 433.83 332.282 435.028 329.544C446.265 303.873 452.144 268.966 450.622 241.016C447.914 203.906 435.674 168.123 415.086 137.129C413.141 134.202 411.199 131.217 409.014 128.464C406.342 125.097 403.424 121.945 400.894 118.464C398.17 119.86 394.802 120.579 391.867 121.504C386.289 123.223 380.743 125.045 375.233 126.971C372.446 127.962 369.622 128.911 366.893 130.055C361.782 132.198 356.515 134.774 351.205 136.342C349.527 136.837 348.213 136.92 346.542 136.36C344.195 135.573 342.345 133.823 341.244 131.628C339.943 129.035 339.531 125.901 340.543 123.144C341.113 121.592 342.113 120.093 343.428 119.075C345.922 117.143 349.533 115.953 352.465 114.78C358.422 112.395 364.422 109.991 370.495 107.919C374.407 106.584 378.675 105.62 382.422 103.905L382.754 103.75ZM455.267 169.065C455.47 169.702 455.433 170.112 456.041 170.449C458.916 169.334 468.744 151.451 470.361 147.777C473.39 140.892 474.796 132.938 471.939 125.766C469.761 120.299 465.032 116.204 459.671 113.977C454.209 111.707 448.76 111.199 442.908 111.111C438.67 111.233 426.383 111.88 423.171 113.366L423.097 113.749C423.146 113.795 423.196 113.841 423.244 113.888C425.304 115.894 427.023 118.821 428.712 121.165C439.447 136.06 448.064 152.198 455.267 169.065Z"/>
	<path fill="#E2E8F0" d="M385.709 104.594C381.362 101.138 376.876 97.7517 372.313 94.5868C338.22 70.9404 296.792 55.541 254.992 55.442C244.42 55.417 234.024 56.5541 223.6 58.2549C215.908 59.5099 208.171 61.0698 200.682 63.2454C192.516 65.6182 184.307 68.6104 176.526 72.0449C173.03 73.6205 169.545 75.2229 166.073 76.8521C162.92 78.3546 160.004 80.369 156.503 80.9693C154.076 81.3854 151.066 81.3213 149.032 79.7594C146.905 78.126 145.283 75.1866 145.058 72.5228C144.889 70.5277 145.641 68.8491 146.934 67.3674C151.185 62.4961 159.062 59.2616 164.891 56.6534C188.339 46.1611 215.992 37.6438 241.756 36.2942C252.041 35.7555 262.303 35.7005 272.573 36.5991C318.338 40.603 362.635 60.1687 398.055 89.1724C401.667 92.1298 405.069 95.3975 408.54 98.5203C427.401 92.8724 449.441 89.7468 468.523 95.9071C478.197 100.541 486.808 106.538 490.533 117.118C494.971 129.722 492.845 143.645 487.087 155.452C480.614 168.724 471.937 180.252 461.383 190.53C464.432 197.46 467.044 212.103 468.067 219.977C469.409 230.304 470.618 240.944 470.662 251.361C470.696 259.34 469.865 267.442 468.824 275.348C466.416 293.616 462.318 311.327 455.607 328.521C452.331 336.897 448.632 345.101 444.526 353.102C443.481 355.135 442.62 357.38 441.297 359.243C440.368 360.553 439.346 361.438 438.02 362.331C436.566 362.487 435.219 362.486 433.76 362.387C431.018 361.575 428.883 360.528 426.859 358.464C425.875 357.033 424.992 355.438 424.91 353.665C424.704 349.239 430.195 341.768 432.312 337.749C446.428 310.935 453.889 268.964 451.358 238.922C450.961 230.523 449.649 222.261 448.02 214.027C442.567 185.58 431.255 158.579 414.803 134.739C412.052 130.732 409.198 126.753 406.109 122.998C404.49 121.029 402.718 119.195 401.099 117.226C398.742 118.418 396.05 119.052 393.533 119.844C388.684 121.37 383.801 122.823 378.977 124.421C371.204 126.995 363.637 130.297 356.029 133.315C353.89 134.163 351.662 135.18 349.384 135.573C347.609 135.878 346.08 135.392 344.639 134.327C342.544 132.776 341.277 130.106 340.952 127.56C340.623 125.153 341.315 122.718 342.862 120.845C345.694 117.4 376.757 106.623 382.087 105.181C383.287 104.857 384.473 104.695 385.709 104.594ZM455.267 169.065C455.47 169.702 455.433 170.112 456.041 170.449C458.916 169.334 468.744 151.451 470.361 147.777C473.39 140.892 474.796 132.938 471.939 125.766C469.761 120.299 465.032 116.204 459.671 113.977C454.209 111.707 448.76 111.199 442.908 111.111C438.67 111.233 426.383 111.88 423.171 113.366L423.097 113.749C423.146 113.795 423.196 113.841 423.244 113.888C425.304 115.894 427.023 118.821 428.712 121.165C439.447 136.06 448.064 152.198 455.267 169.065Z"/>
	<path fill="#E2E8F0" d="M440.558 110.111C442.236 110.012 443.968 110.012 445.648 110.056C454.078 110.277 463.012 112.407 468.954 118.793C472.824 122.953 474.732 129.18 474.48 134.806C474.314 138.504 473.566 142.441 472.314 145.926C469.737 153.103 460.763 168.144 455.392 173.057C454 167.801 451.578 162.972 449.219 158.103C445.85 151.149 442.385 144.219 438.408 137.586C435.045 131.977 431.139 126.532 427.369 121.186C425.584 118.654 423.738 115.126 421.29 113.224C421 113 421.04 112.909 420.944 112.565C422.212 111.511 438.156 110.203 440.558 110.111ZM455.267 169.065C455.47 169.702 455.433 170.112 456.041 170.449C458.916 169.334 468.744 151.451 470.361 147.777C473.39 140.892 474.796 132.938 471.939 125.766C469.761 120.299 465.032 116.204 459.671 113.977C454.209 111.707 448.76 111.199 442.908 111.111C438.67 111.233 426.383 111.88 423.171 113.366L423.097 113.749C423.146 113.795 423.196 113.841 423.244 113.888C425.304 115.894 427.023 118.821 428.712 121.165C439.447 136.06 448.064 152.198 455.267 169.065Z"/>
	<path fill="#E2E8F0" d="M274.772 383.489C275.278 383.957 275.149 384.174 275.189 384.825C276.588 386.767 276.711 389.836 277.418 392.142C278.106 394.308 278.997 396.404 280.08 398.402C282.771 403.314 288.071 405.715 293.16 407.292C294.431 407.686 296.333 408.027 297.366 408.872C296.472 410.647 288.584 412.532 286.133 414.227C280.578 418.068 278.064 426.236 276.868 432.519C276.87 432.91 276.907 433.379 276.83 433.76C276.704 434.387 276.578 434.507 276.107 434.872C275.646 434.6 275.524 434.468 275.296 433.958C273.997 431.056 273.344 425.6 271.994 422.041C269.855 416.398 265.641 413.185 260.017 411.367C258.407 410.846 256.674 410.69 255.131 410C255.498 408.139 261.83 406.701 263.546 405.942C265.148 405.232 266.72 404.3 268.044 403.147C273.097 398.746 274.295 390.03 274.758 383.694L274.772 383.489Z"/>
	<path fill="#E2E8F0" d="M390.825 168.655C391.89 172.539 391.699 176.535 393.251 180.399C395.616 186.285 399.918 187.869 405.58 189.404C406.428 189.634 407.868 189.862 408.592 190.348C409.179 190.742 409.597 191.356 410.017 191.915C407.313 192.455 404.838 193.411 402.395 194.693C400.233 195.828 398.033 197.171 396.359 198.974C393.868 201.656 392.389 205.595 391.541 209.097C391.388 209.732 390.712 214.655 390.43 214.837C390.145 215.02 389.833 214.772 389.34 215.185C388.233 212.865 388.438 208.313 387.39 205.4C385.485 200.107 381.377 195.88 376.052 194.08C374.213 193.459 372.213 193.222 370.458 192.392L370.313 191.918C370.493 191.698 370.627 191.428 370.855 191.258C371.617 190.69 373.74 190.244 374.711 189.885C377.219 188.957 379.949 187.935 382.204 186.487C386.766 183.556 388.025 177.491 388.985 172.607C389.285 171.076 389.452 169.581 390.825 168.655Z"/>
	<path fill="#E2E8F0" d="M399.588 256.175C404.971 255.25 410.093 258.837 411.062 264.212C412.031 269.587 408.485 274.738 403.118 275.751C397.69 276.775 392.466 273.179 391.486 267.743C390.505 262.306 394.143 257.112 399.588 256.175Z"/>
	<path fill="#E2E8F0" d="M399.918 257.246C404.687 256.504 409.167 259.732 409.972 264.491C410.777 269.249 407.608 273.772 402.861 274.639C399.734 275.211 396.54 274.056 394.503 271.615C392.466 269.175 391.899 265.826 393.021 262.851C394.142 259.877 396.777 257.735 399.918 257.246Z"/>
	<path fill="#E2E8F0" d="M147.551 355.036C149.259 355.163 150.871 355.505 152.362 356.389C154.126 357.434 155.5 359.144 155.986 361.15C156.487 363.215 156.057 365.591 154.945 367.392C153.698 369.411 151.489 370.748 149.222 371.335C147.157 371.298 145.309 370.809 143.526 369.748C141.806 368.725 140.486 367.29 140.01 365.312C139.515 363.253 139.86 360.895 140.983 359.094C142.492 356.674 144.92 355.715 147.551 355.036Z"/>
	<path fill="#E2E8F0" d="M147.264 356.038C148.942 356.001 150.475 356.2 151.963 357.029C153.495 357.882 154.625 359.268 155.071 360.97C155.564 362.848 155.283 365.109 154.289 366.783C153.053 368.864 151.312 369.582 149.078 370.098L148.784 370.099C145.642 370.085 143.487 368.515 141.366 366.372C141.339 366.28 141.309 366.189 141.284 366.097C140.674 363.775 140.698 361.333 142.035 359.255C143.259 357.354 145.148 356.547 147.264 356.038Z"/>
	<path fill="#E2E8F0" d="M84.9134 44.2497C86.2566 40.7932 87.1569 30.8336 89.5468 28.868C90.1398 28.7737 90.624 28.6777 91.2198 28.8297C92.509 31.1559 93.1297 38.2705 93.6889 41.3181C95.4049 49.5918 99.7469 58.3822 107.019 63.1351C110.718 65.5526 115.205 67.1518 119.387 68.5393C121.177 69.1332 123.076 69.571 124.764 70.421C125.692 70.8885 126.981 71.5644 127.253 72.6568C127.352 73.0563 127.235 73.3069 127.01 73.6472C125.811 75.4639 118.822 76.3354 116.564 76.98C114.757 77.5082 112.987 78.1576 111.267 78.9239C108.423 80.2106 105.851 82.122 103.664 84.3434C98.4783 89.6119 95.6237 95.5456 93.8862 102.687C92.9629 106.482 93.0144 112.877 90.2251 115.859C89.8061 115.554 89.4077 115.364 88.9305 115.164C85.7176 112.642 85.0669 104.928 83.8965 100.996C82.834 97.4265 81.5811 93.7284 79.6706 90.5208C78.3942 88.3777 76.7254 86.5718 74.9524 84.8315C69.7797 79.7539 64.7152 77.6263 57.8014 75.8581C56.2837 75.5453 52.7122 74.7219 51.7945 73.3952L51.405 72.5355L51.0705 72.0996L51.2603 71.5094C53.5993 69.3674 57.8395 68.7578 60.8569 68.0405C64.9598 66.9744 69.2116 65.2458 72.8249 63.0221C79.3595 59.0005 83.1967 51.5326 84.9134 44.2497Z"/>
	<path fill="#E2E8F0" d="M84.9134 44.2497C86.2566 40.7932 87.1569 30.8336 89.5468 28.868C90.1398 28.7737 90.624 28.6777 91.2198 28.8297C92.509 31.1559 93.1297 38.2705 93.6889 41.3181C95.4049 49.5918 99.7469 58.3822 107.019 63.1351C110.718 65.5526 115.205 67.1518 119.387 68.5393C121.177 69.1332 123.076 69.571 124.764 70.421C125.692 70.8885 126.981 71.5644 127.253 72.6568C127.352 73.0563 127.235 73.3069 127.01 73.6472C125.811 75.4639 118.822 76.3354 116.564 76.98C114.757 77.5082 112.987 78.1576 111.267 78.9239C108.423 80.2106 105.851 82.122 103.664 84.3434C98.4783 89.6119 95.6237 95.5456 93.8862 102.687C92.9629 106.482 93.0144 112.877 90.2251 115.859C90.2303 114.115 90.8631 112.208 91.2005 110.489C91.7715 107.58 92.2022 104.636 92.8986 101.752C95.9937 88.9388 104.481 78.7573 117.522 75.534C119.454 75.0564 124.431 74.8171 125.85 73.8654C126.348 73.5312 126.34 73.3902 126.462 72.8377C126.154 72.0546 125.678 71.6783 124.949 71.2935C123.319 70.4337 121.196 70.0615 119.42 69.5511C115.627 68.4603 111.815 67.1699 108.372 65.2142C98.4128 59.5565 94.1555 49.2007 92.0178 38.4599C91.3713 35.2112 91.1161 31.8868 90.2363 28.6881C88.2412 32.3544 87.9226 36.8232 87.1295 40.8697C85.7892 47.7077 82.3736 56.4443 77.1383 61.2968C74.6734 63.5815 71.5963 65.2485 68.5346 66.5848C66.4207 67.4923 64.2516 68.2654 62.0403 68.8993C58.8905 69.8081 53.924 70.045 51.5628 72.3745C51.5093 72.4273 51.4576 72.4818 51.405 72.5355L51.0705 72.0996L51.2603 71.5094C53.5993 69.3674 57.8395 68.7578 60.8569 68.0405C64.9598 66.9744 69.2116 65.2458 72.8249 63.0221C79.3595 59.0005 83.1967 51.5326 84.9134 44.2497Z"/>
	<path fill="#E2E8F0" d="M51.7945 73.3952C63.4244 75.5408 72.9379 78.8409 80.0045 89.0127C85.2639 96.5833 86.2232 106.52 88.9305 115.164C85.7176 112.642 85.0669 104.928 83.8965 100.996C82.834 97.4265 81.5811 93.7284 79.6706 90.5208C78.3942 88.3777 76.7254 86.5718 74.9524 84.8315C69.7797 79.7539 64.7152 77.6263 57.8014 75.8581C56.2837 75.5453 52.7122 74.7219 51.7945 73.3952Z"/>
</svg>
